<?xml version="1.0" encoding="UTF-8"?>
<svg width="158" height="33.639" fill="none" version="1.1" viewBox="0 0 158 33.639011" xmlns="http://www.w3.org/2000/svg">
 <g transform="scale(.46053)" clip-rule="evenodd" fill-rule="evenodd">
  <g fill="#231f20">
   <path transform="translate(26.562,55.336)" d="m0 0v2.0424h6.6217v15.665h2.3282v-15.665h6.5443v-2.0424z"/>
   <path transform="translate(44.269,55.336)" d="m10.918 17.708h2.363v-7.152c0-4.1449-2.3777-5.964-5.7649-5.964-2.1337 0-4.014 0.86276-5.1528 2.7139v-7.3056h-2.363v17.708h2.363v-5.8299c0-3.9941 2.3777-5.5703 4.7981-5.5703 2.2337 0 3.7566 1.2648 3.7566 4.3655v7.0347z"/>
   <path transform="translate(61.977,59.763)" d="m2.3855 5.6182c0.35971-2.7292 2.0232-3.9392 4.3802-3.9392 1.9972 0 4.0191 1.0952 4.075 3.9392zm10.895 0.94766c0-4.2004-2.3011-6.5658-6.4605-6.5658-4.2555 0-6.8202 2.4051-6.8202 6.8872 0 3.9119 2.4686 6.3935 6.7657 6.3935 2.9387 0 5.7787-1.1389 6.2384-4.158h-2.4413c-0.513 1.7516-1.9401 2.5227-3.9361 2.5227-2.718 0-4.1036-1.8376-4.3386-4.3467h10.993v-0.73288z"/>
   <path transform="translate(161.58,59.763)" d="m7.003 2.1512c0.44906 0 1.0156 0.04457 1.8508 0.19987v-2.2863c-0.34134-0.031634-0.68548-0.064707-1.522-0.064707-2.3446 0-3.9128 1.3056-4.8823 2.873l-0.07695-2.6084h-2.3726c0.074143 1.0411 0.12031 1.9628 0.12031 2.9593v10.057h2.4761v-6.2938c0-3.1922 1.4493-4.8358 4.4066-4.8358z"/>
   <path transform="translate(232.41,59.763)" d="m6.9997 2.1512c0.45024 0 1.0165 0.04457 1.8541 0.19987v-2.2863c-0.34397-0.031634-0.68515-0.064707-1.5241-0.064707-2.3449 0-3.911 1.3056-4.88 2.873l-0.07691-2.6084h-2.3729c0.076905 1.0411 0.12025 1.9628 0.12025 2.9593v10.057h2.4777v-6.2938c0-3.1922 1.4472-4.8358 4.4018-4.8358z"/>
   <path transform="translate(117.31,59.763)" d="m6.575 11.366-3.8894-11.366h-2.6856l4.8634 13.281h3.2015l4.0882-11.2 4.3018 11.2h3.0753l4.8177-13.281h-2.4989l-3.8437 11.366-4.2467-11.366h-3.0833z"/>
   <path transform="translate(84.111,55.336)" d="m8.0883 8.9968h-5.4274v-7.0297h5.2405c3.556 0 4.7466 1.3072 4.7466 3.3356 0 2.3674-1.2065 3.6941-4.5597 3.6941zm-0.20285-8.9967-7.8854 0.016741v17.691l2.6608-0.0139v-6.7326h5.6577c4.919 0 7.1757-2.3842 7.1757-5.6723 0-2.9952-1.9178-5.3026-7.6088-5.2887z"/>
   <path transform="translate(101.82,59.763)" d="m7.7334 11.603c-3.3694 0-5.157-2.1603-5.157-4.962 0-2.9192 1.7876-4.962 5.157-4.962 3.5148 0 5.1981 2.0428 5.1981 4.962 0 2.8016-1.8013 4.962-5.1981 4.962zm1e-5 -11.603c-5.0088 0-7.7334 2.6567-7.7334 6.641 0 4.2332 2.7246 6.6396 7.7334 6.6396 5.0513 0 7.7608-2.4064 7.7608-6.6396 0-4.1894-2.608-6.641-7.7608-6.641z"/>
   <path transform="translate(143.88,59.763)" d="m2.4009 5.6182c0.31977-2.7292 2.0408-3.9392 4.3988-3.9392 2.0122 0 4.0244 1.0952 4.0673 3.9392h-8.466zm10.88 0.94766c0-4.2004-2.2734-6.5658-6.4382-6.5658-4.274 0-6.8425 2.4051-6.8425 6.8872 0 3.9119 2.4568 6.3935 6.7593 6.3935 2.9546 0 5.8-1.1389 6.2446-4.158h-2.4152c-0.5264 1.7516-1.942 2.5227-3.9269 2.5227-2.7349 0-4.1349-1.8376-4.3715-4.3467h10.99v-0.73288z"/>
   <path transform="translate(243.48,59.763)" d="m2.4016 5.6182c0.32231-2.7292 2.0404-3.9392 4.3992-3.9392 2.0105 0 4.0223 1.0952 4.0639 3.9392zm10.879 0.94766c0-4.2004-2.2743-6.5658-6.4395-6.5658-4.2718 0-6.8412 2.4051-6.8412 6.8872 0 3.9119 2.4576 6.3935 6.758 6.3935 2.9566 0 5.8015-1.1389 6.2433-4.158h-2.4108c-0.5302 1.7516-1.9442 2.5227-3.93 2.5227-2.7331 0-4.1315-1.8376-4.368-4.3467h10.988v-0.73288z"/>
   <path transform="translate(192.57,55.336)" d="m8.3496 1.7108c0.66512 0 1.5087 0.10402 2.7177 0.33669v-1.7532c-0.8325-0.16013-1.9285-0.29426-3.1946-0.29426-3.6171 0-4.7605 1.8545-4.7605 4.8067v0.51051h-3.1123v1.6944h3.1123v10.696h2.4709v-10.696h5.084v-1.6944h-5.084v-0.99501c0-1.9558 0.82967-2.6114 2.7665-2.6114z"/>
   <path transform="translate(177.08,59.763)" d="m7.7485 11.603c-3.362 0-5.1752-2.1767-5.1752-4.962 0-2.9192 1.8132-4.962 5.1752-4.962 3.5099 0 5.2053 2.0428 5.2053 4.962 0 2.7852-1.8433 4.962-5.2053 4.962zm0-11.603c-4.9999 0-7.7485 2.6567-7.7485 6.641 0 4.2332 2.7198 6.6396 7.7485 6.6396 5.0122 0 7.7457-2.4064 7.7457-6.6396 0-4.1894-2.5856-6.641-7.7457-6.641z"/>
   <path transform="translate(276.68,59.763)" d="m11.848 3.1976c-0.8125-2.126-2.6672-3.1976-4.5756-3.1976-1.7913 0-3.6447 0.92025-4.7914 2.7918l-0.1213-2.3084h-2.3597c0.073345 1.0249 0.09027 1.9296 0.09027 2.9106v9.8867h2.4994v-6.1873c0-3.8054 2.1806-5.3561 4.1256-5.3561 2.0776 0 3.1327 1.4602 3.1327 4.9773v6.5661h2.4966v-6.1873c0-4.4981 2.828-5.3561 4.0494-5.3561 2.5177 0 3.2371 1.7062 3.2371 5.0988v6.4446h2.5036v-7.427c0-4.2238-2.278-5.8537-5.3471-5.8537-2.6503 0-4.309 1.7642-4.9395 3.1976z"/>
   <path transform="translate(301.03,59.763)" d="m6.3486 13.281c4.6985 0 6.9321-1.3399 6.9321-3.9679 0-1.8377-1.1023-2.7456-3.4213-3.2132l-4.1287-0.81492c-1.8359-0.36507-2.6451-0.76022-2.6451-1.7091 0-1.2415 1.4574-1.8951 3.6292-1.8951 1.763 0 3.3814 0.43481 3.5562 1.9976h2.5268c0-2.9192-3.2645-3.6781-6.0114-3.6781-3.2713 0-6.1201 1.1376-6.1201 3.8695 0 1.9389 1.4657 2.7729 3.3732 3.1653l3.9085 0.81629c1.412 0.29397 2.7635 0.58521 2.7635 1.7064 0 1.3168-1.3515 2.0893-4.0696 2.0893-2.2047 0-3.8039-0.6249-4.0406-2.334h-2.6011c0.18992 2.8755 2.8653 3.9679 6.3486 3.9679z"/>
   <path transform="translate(212.49,55.336)" d="m7.4047 15.739h-4.7592v-13.77h4.3683c6.4067 0 7.9647 2.3442 7.9647 6.8845 0 3.6273-1.4599 6.8859-7.5738 6.8859zm0.23019-15.739h-7.6349v17.708h7.7401c6.3697 0 9.9676-3.1762 9.9676-8.867 0-5.6838-3.1018-8.8406-10.073-8.8406z"/>
   <path transform="translate(261.19,59.763)" d="m10.745 7.3712c0 2.9917-1.7108 4.2756-4.755 4.2756-2.3789 0-3.3741-0.9913-3.3741-2.3764 0-2.7756 4.9651-2.4817 6.8346-2.4817h1.2946v0.58247zm2.4164 3.1079v-6.101c0-2.9944-2.4902-4.3781-6.0272-4.3781-2.7784 0-5.9451 0.75886-6.2388 3.7232h2.6127c0.14616-1.2415 1.3975-2.0428 3.6261-2.0428 2.1673 0 3.6108 0.77117 3.6108 2.9903v0.46762h-1.4143c-2.8507 0-9.3303-0.2051-9.3303 4.132 0 2.4051 2.1729 4.0103 5.3507 4.0103 2.4652 0 4.0562-0.2885 5.4677-2.1603l0.1489 1.7255h2.3134c-0.0863-0.7028-0.1197-1.4315-0.1197-2.3668z"/>
  </g>
  <g fill="#ec1b2e">
   <path transform="translate(270.04,2.2134)" d="m24.8 20.585 7.4366-12.289 7.58 12.289h-15.017zm42.779 13.15c-1.7408-0.2339-2.8016-1.9582-4.1669-4.1489l-17.369-27.396c-0.6867-1.0158-1.7475-2.1907-3.4158-2.1907h-29.735v5.4013l6.8544 0.8331c1.3653 0.15776 2.3993 1.6717 1.3412 3.3947l-13.049 21.914c-0.22799 0.3917-0.98707 2.1021-2.8056 2.336l-5.233 0.6172v5.346h24.726v-5.4041l-4.2487-0.5466c-1.7434-0.2353-2.8807-1.3313-1.7434-3.2093l1.8172-3.0514h23.744l1.5933 2.5034c1.6656 2.5837 0 3.522-2.0493 3.7573l-4.2486 0.5466v5.4041h33.453v-5.4802l-5.4651-0.6269z"/>
   <path transform="translate(210.28,2.2134)" d="m32.734 32.17h-9.9739v-24.577h9.9739c9.5154 0 13.505 2.2697 13.505 12.289 0 10.099-3.9898 12.288-13.505 12.288zm5.9853-32.17h-38.692l-0.0054265 5.4015 4.8459 0.50929c1.8179 0.27264 2.5464 1.604 2.5464 3.4031v21.448c0 1.4891-0.61184 2.8952-2.2262 3.1305l-5.1878 0.6878v5.2465l38.72 0.0152c17.8 0 25.471-8.8461 25.471-20.509 0-10.487-7.6703-19.334-25.471-19.334z"/>
   <path transform="translate(0,2.2134)" d="m0 39.842h31.207v-5.324l-5.3529-0.6255c-1.2253-0.1564-2.4465-0.9397-2.4465-3.601v-6.4188h24.018v6.1074c0 1.7977-0.307 3.5207-2.3721 3.756l-5.4314 0.6269v5.479h31.209v-5.479l-5.5084-0.6269c-1.0685-0.1564-2.2937-1.0186-2.2937-3.2883v-20.742c0-2.1133 0.7641-3.5221 2.3694-3.6799l5.4327-0.62416v-5.4015h-31.209v5.3226l5.4314 0.70304c1.8366 0.23665 2.3721 1.723 2.3721 3.6799v6.1834h-24.018v-6.2609c0-2.3499 0.9169-3.4446 2.5236-3.6024l5.2758-0.62416v-5.4015h-31.131v5.4015l5.2028 0.62416c2.0652 0.23665 2.6007 1.8033 2.5263 3.8363v20.196c0 2.2682-0.61265 3.5982-2.6034 3.8349l-5.2014 0.6255v5.324z"/>
   <path transform="translate(73.044)" d="m32.094 34.597c-8.9486 0-14.041-3.3046-14.041-13.608 0-10.148 5.0923-13.453 14.041-13.453 8.9514 0 14.044 3.306 14.044 13.453 0 10.304-5.0923 13.608-14.044 13.608zm0.0762-34.597c-22.217 0-32.17 8.6115-32.17 20.914 0 12.607 9.9526 21.142 32.17 21.142 22.068 0 32.02-8.5354 32.02-21.142 0-12.302-9.9526-20.914-32.02-20.914z"/>
   <path transform="translate(137.23,2.2134)" d="m0 39.842h24.993v-5.324l-5.3654-0.6255c-1.5359-0.1564-2.455-1.4725-2.455-3.2883v-20.272l20.78 27.943c0.6886 0.9425 1.9913 1.5666 3.2195 1.5666h19.625v-30.214c0-1.4158 0.37-3.3588 2.3777-3.6024l5.4426-0.62416v-5.4015h-24.993v5.3226l5.4427 0.70304c1.9222 0.23804 2.3749 1.8794 2.3749 3.7588v19.724l-20.621-27.787c-0.7672-1.0158-1.7636-1.7216-3.2222-1.7216h-27.598v5.4015l5.2122 0.62416c1.8395 0.28094 2.5295 1.2345 2.5295 3.8363v20.196c0 2.3928-0.63848 3.5429-2.6068 3.8349l-5.135 0.6255v5.324z"/>
  </g>
 </g>
</svg>
